<svg xmlns="http://www.w3.org/2000/svg" width="256" height="256" viewBox="0 0 512 512" preserveAspectRatio="xMidYMid meet">
<path d="M0 41.2903C0 18.4863 18.4863 0 41.2903 0H470.71C493.514 0 512 18.4863 512 41.2903V470.71C512 493.514 493.514 512 470.71 512H41.2903C18.4863 512 0 493.514 0 470.71V41.2903Z" fill="#D3D4AB" style="fill:#D3D4AB;fill:color(display-p3 0.8275 0.8314 0.6706);fill-opacity:1;"/>
<path d="M62.1209 352.908C91.437 337.144 151.133 299.697 151.133 255.991C151.133 212.285 91.437 174.837 62.1209 159.074C58.237 156.991 59.7196 151.115 64.1311 151.115H151.133V64.122C151.133 59.7196 157.009 58.2279 159.092 62.1118C174.846 91.4279 212.303 151.124 256.009 151.124C299.715 151.124 337.163 91.4279 352.926 62.1118C355.009 58.2279 360.885 59.7105 360.885 64.122V151.124H447.878C452.289 151.124 453.772 157 449.888 159.083C420.572 174.837 360.876 212.294 360.876 256C360.876 299.706 420.572 337.154 449.888 352.917C453.772 355 452.289 360.876 447.878 360.876H360.876V447.878C360.876 452.28 355 453.772 352.917 449.888C337.154 420.572 299.706 360.876 256 360.876C212.294 360.876 174.846 420.572 159.083 449.888C156.991 453.772 151.124 452.289 151.124 447.878V360.876H64.122C59.7105 360.876 58.2279 355 62.1118 352.917L62.1209 352.908ZM256.009 348.76C307.246 348.76 348.778 307.228 348.778 255.991C348.778 204.754 307.246 163.222 256.009 163.222C204.772 163.222 163.24 204.754 163.24 255.991C163.24 307.228 204.772 348.76 256.009 348.76Z" fill="#565522" style="fill:#565522;fill:color(display-p3 0.3373 0.3333 0.1333);fill-opacity:1;"/>

</svg>