<svg width="12" height="12" viewBox="0 0 12 12" xmlns="http://www.w3.org/2000/svg"><path d="M10 11V2H1C0.447715 2 0 1.55228 0 1C0 0.447715 0.447715 0 1 0H11C11.5523 0 12 0.447715 12 1V11C12 11.5523 11.5523 12 11 12C10.4477 12 10 11.5523 10 11Z M10.293 0.292954C10.6835 -0.0975701 11.3165 -0.0975701 11.707 0.292954C12.0975 0.683478 12.0975 1.31649 11.707 1.70702L1.70702 11.707C1.31649 12.0975 0.683478 12.0975 0.292954 11.707C-0.0975701 11.3165 -0.0975701 10.6835 0.292954 10.293L10.293 0.292954Z" fill="currentColor"/></svg>