<svg width="1180" height="135" viewBox="0 0 1180 135" fill="none" xmlns="http://www.w3.org/2000/svg">
<path d="M926.434 68.5396C923.204 68.5396 920.301 68.1596 917.698 67.4126C915.096 66.6525 912.859 65.5255 910.976 64.0184C909.093 62.5113 907.654 60.6373 906.647 58.4095C905.64 56.1816 905.143 53.6131 905.143 50.7038C905.143 47.7945 905.667 45.1473 906.726 42.867C907.785 40.5867 909.289 38.6603 911.238 37.0746C913.186 35.4889 915.514 34.2964 918.221 33.497C920.928 32.6844 923.923 32.2913 927.232 32.2913C931.142 32.2913 934.503 32.8417 937.341 33.9294C940.166 35.0302 942.402 36.5635 944.037 38.5424C945.672 40.5212 946.587 42.867 946.809 45.6059H939.93C939.46 44.1644 938.701 42.9194 937.642 41.8579C936.583 40.7964 935.196 39.9708 933.47 39.3811C931.744 38.7914 929.664 38.4899 927.232 38.4899C924.119 38.4899 921.451 38.9879 919.254 39.997C917.044 41.0061 915.37 42.4214 914.233 44.2561C913.082 46.0908 912.506 48.24 912.506 50.7169C912.506 53.1937 913.003 55.1988 914.01 56.9417C915.017 58.6847 916.56 60.0214 918.666 60.9518C920.758 61.8823 923.439 62.3541 926.709 62.3541C929.22 62.3541 931.43 62.0264 933.352 61.3581C935.275 60.6897 936.87 59.7986 938.165 58.6585C939.46 57.5314 940.375 56.2603 940.911 54.858L943.71 53.8358C943.239 58.475 941.5 62.0789 938.466 64.6605C935.432 67.2422 931.43 68.5396 926.447 68.5396H926.434ZM941.866 67.8451C941.866 66.7311 941.931 65.4468 942.075 63.9922C942.219 62.5375 942.402 61.0698 942.611 59.5758C942.821 58.0818 943.017 56.7058 943.2 55.4609H927.284V50.8872H948.039V67.8581H941.853L941.866 67.8451Z" fill="#565522" style="fill:#565522;fill:color(display-p3 0.3373 0.3333 0.1333);fill-opacity:1;"/>
<path d="M962.725 32.9858V61.8692H985.847V67.845H955.572V32.9858H962.725Z" fill="#565522" style="fill:#565522;fill:color(display-p3 0.3373 0.3333 0.1333);fill-opacity:1;"/>
<path d="M1013.22 68.5395C1008.59 68.5395 1004.64 67.8188 1001.37 66.351C998.088 64.8964 995.577 62.8258 993.837 60.1262C992.098 57.4265 991.235 54.2027 991.235 50.4285C991.235 46.6543 992.098 43.3649 993.837 40.6784C995.577 37.9788 998.088 35.9082 1001.37 34.4535C1004.65 32.9989 1008.6 32.265 1013.22 32.265C1017.84 32.265 1021.84 32.9858 1025.11 34.4535C1028.36 35.9082 1030.87 37.9788 1032.61 40.6784C1034.35 43.378 1035.22 46.628 1035.22 50.4285C1035.22 54.2289 1034.34 57.4265 1032.61 60.1262C1030.87 62.8258 1028.38 64.8964 1025.11 66.351C1021.85 67.8057 1017.89 68.5395 1013.22 68.5395ZM1013.22 62.354C1016.08 62.354 1018.61 61.9215 1020.78 61.0566C1022.95 60.1917 1024.65 58.8812 1025.89 57.1251C1027.13 55.3691 1027.75 53.1412 1027.75 50.4416C1027.75 47.742 1027.13 45.5272 1025.89 43.7581C1024.65 42.002 1022.95 40.6784 1020.78 39.8004C1018.61 38.9223 1016.1 38.4768 1013.22 38.4768C1010.34 38.4768 1007.86 38.9223 1005.63 39.8004C1003.41 40.6784 1001.67 42.002 1000.42 43.7581C999.16 45.5141 998.532 47.742 998.532 50.4416C998.532 53.1412 999.16 55.3559 1000.42 57.1251C1001.67 58.8812 1003.41 60.1917 1005.63 61.0566C1007.86 61.9215 1010.38 62.354 1013.22 62.354Z" fill="#565522" style="fill:#565522;fill:color(display-p3 0.3373 0.3333 0.1333);fill-opacity:1;"/>
<path d="M1042.2 67.845V32.9858H1062.25C1066.9 32.9858 1070.45 33.7721 1072.87 35.3316C1075.29 36.8911 1076.5 39.2238 1076.5 42.3035C1076.5 44.2823 1076.02 45.8287 1075.05 46.9688C1074.08 48.0959 1072.71 48.9346 1070.94 49.4719C1069.17 50.0092 1067.09 50.3499 1064.68 50.4941L1064.89 50.114C1066.64 50.1533 1068.3 50.2713 1069.86 50.4941C1071.42 50.7037 1072.79 51.11 1073.97 51.6735C1075.14 52.237 1076.08 53.0495 1076.76 54.0717C1077.44 55.0939 1077.78 56.4306 1077.78 58.0818C1077.78 60.231 1077.21 62.0264 1076.07 63.4418C1074.92 64.8571 1073.32 65.9317 1071.28 66.6525C1069.24 67.3732 1066.88 67.7664 1064.18 67.8319H1042.2V67.845ZM1049.34 47.7551H1061.97C1064.24 47.7551 1065.97 47.4275 1067.19 46.7591C1068.41 46.0908 1069.02 44.9507 1069.02 43.3388C1069.02 41.7268 1068.41 40.5867 1067.19 39.9184C1065.97 39.25 1064.37 38.9224 1062.35 38.9224H1049.34V47.7551ZM1049.34 61.9216H1063.42C1065.69 61.9216 1067.43 61.5546 1068.64 60.8208C1069.86 60.0869 1070.47 58.9074 1070.47 57.2955C1070.47 56.1161 1070.12 55.2512 1069.4 54.7139C1068.68 54.1766 1067.74 53.8489 1066.55 53.7179C1065.37 53.5868 1064.09 53.5344 1062.73 53.5344H1049.34V61.9347V61.9216Z" fill="#565522" style="fill:#565522;fill:color(display-p3 0.3373 0.3333 0.1333);fill-opacity:1;"/>
<path d="M1080.91 67.845L1097.26 32.9858H1105L1121.5 67.845H1113.71L1099.4 36.4324H1102.84L1088.65 67.845H1080.91ZM1089.57 60.2441V54.2683H1112.58V60.2441H1089.57Z" fill="#565522" style="fill:#565522;fill:color(display-p3 0.3373 0.3333 0.1333);fill-opacity:1;"/>
<path d="M1133.7 32.9858V61.8692H1156.83V67.845H1126.55V32.9858H1133.7Z" fill="#565522" style="fill:#565522;fill:color(display-p3 0.3373 0.3333 0.1333);fill-opacity:1;"/>
<path d="M912.624 121.182V115.469H928.54C930.436 115.469 931.94 114.958 933.052 113.935C934.163 112.913 934.712 111.485 934.712 109.65C934.712 107.815 934.163 106.295 933.052 105.286C931.94 104.277 930.436 103.779 928.54 103.779H913.487V132.492H906.334V97.6328H927.899C929.834 97.6328 931.652 97.8687 933.352 98.3273C935.053 98.7991 936.543 99.5068 937.812 100.477C939.08 101.446 940.074 102.691 940.794 104.198C941.513 105.705 941.866 107.527 941.866 109.637C941.866 111.747 941.513 113.503 940.794 114.971C940.074 116.438 939.08 117.644 937.812 118.548C936.543 119.466 935.053 120.134 933.352 120.54C931.652 120.96 929.834 121.156 927.899 121.156H912.624V121.182Z" fill="#565522" style="fill:#565522;fill:color(display-p3 0.3373 0.3333 0.1333);fill-opacity:1;"/>
<path d="M948.588 97.6459H955.742V132.505H948.588V97.6459ZM954.878 112.022H982.46V117.998H954.878V112.022ZM981.283 97.6459H988.436V132.505H981.283V97.6459Z" fill="#565522" style="fill:#565522;fill:color(display-p3 0.3373 0.3333 0.1333);fill-opacity:1;"/>
<path d="M993.484 132.492L1009.83 97.6328H1017.57L1034.08 132.492H1026.28L1011.98 101.079H1015.42L1001.23 132.492H993.484ZM1002.14 124.904V118.928H1025.16V124.904H1002.14Z" fill="#565522" style="fill:#565522;fill:color(display-p3 0.3373 0.3333 0.1333);fill-opacity:1;"/>
<path d="M1039.13 132.492V97.6328H1062.73C1065.43 97.6328 1067.75 97.9997 1069.75 98.7336C1071.74 99.4675 1073.3 100.621 1074.41 102.18C1075.52 103.74 1076.07 105.745 1076.07 108.182C1076.07 109.833 1075.78 111.236 1075.21 112.389C1074.63 113.542 1073.83 114.473 1072.81 115.193C1071.79 115.914 1070.62 116.465 1069.3 116.832C1067.98 117.212 1066.55 117.447 1065.05 117.552L1064.29 117.12C1066.8 117.159 1068.85 117.356 1070.47 117.736C1072.08 118.116 1073.3 118.797 1074.11 119.78C1074.92 120.763 1075.31 122.231 1075.31 124.17V132.466H1068.16V124.655C1068.16 123.332 1067.92 122.296 1067.47 121.562C1066.99 120.829 1066.17 120.317 1064.97 120.029C1063.76 119.741 1062.04 119.597 1059.78 119.597H1046.28V132.479H1039.13V132.492ZM1046.28 114.014H1062.73C1064.73 114.014 1066.28 113.529 1067.33 112.559C1068.39 111.59 1068.92 110.279 1068.92 108.628C1068.92 106.977 1068.39 105.85 1067.33 105.024C1066.28 104.198 1064.75 103.779 1062.73 103.779H1046.28V114.014Z" fill="#565522" style="fill:#565522;fill:color(display-p3 0.3373 0.3333 0.1333);fill-opacity:1;"/>
<path d="M1110.58 128.941H1107.2L1127.19 97.6328H1134.35V132.492H1127.19V107.173L1128.92 107.658L1112.95 132.492H1104.93L1088.97 107.763L1090.68 107.278V132.492H1083.52V97.6328H1090.68L1110.57 128.941H1110.58Z" fill="#565522" style="fill:#565522;fill:color(display-p3 0.3373 0.3333 0.1333);fill-opacity:1;"/>
<path d="M1139.41 132.492L1155.75 97.6328H1163.5L1180 132.492H1172.21L1157.9 101.079H1161.34L1147.15 132.492H1139.41ZM1148.05 124.904V118.928H1171.07V124.904H1148.05Z" fill="#565522" style="fill:#565522;fill:color(display-p3 0.3373 0.3333 0.1333);fill-opacity:1;"/>
<path d="M856.834 107.5C849.262 103.425 833.83 93.7139 833.83 82.3913C833.83 71.0686 849.262 61.3709 856.834 57.2822C857.841 56.7449 857.448 55.2247 856.311 55.2247H833.817V32.6842C833.817 31.544 832.3 31.164 831.763 32.16C827.696 39.7477 818.006 55.2116 806.706 55.2116C795.407 55.2116 785.73 39.7477 781.649 32.16C781.113 31.1509 779.596 31.544 779.596 32.6842V55.2247H757.102C755.964 55.2247 755.585 56.7449 756.579 57.2822C764.151 61.3578 779.583 71.0686 779.583 82.3913C779.583 93.7139 764.151 103.412 756.579 107.5C755.572 108.038 755.964 109.558 757.102 109.558H779.596V132.098C779.596 133.238 781.113 133.619 781.649 132.623C785.717 125.035 795.407 109.571 806.706 109.571C818.006 109.571 827.683 125.035 831.763 132.623C832.3 133.632 833.817 133.238 833.817 132.098V109.558H856.311C857.448 109.558 857.828 108.038 856.834 107.5ZM806.719 106.426C793.472 106.426 782.735 95.6666 782.735 82.3913C782.735 69.1159 793.472 58.3568 806.719 58.3568C819.967 58.3568 830.704 69.1159 830.704 82.3913C830.704 95.6666 819.967 106.426 806.719 106.426Z" fill="#565522" style="fill:#565522;fill:color(display-p3 0.3373 0.3333 0.1333);fill-opacity:1;"/>
<path d="M62.8795 0H72.2825C73.0672 0 73.7733 0.432464 74.0872 1.08771L123.181 108.208C125.365 112.978 127.85 117.617 130.61 122.138L135.108 129.49C135.514 130.158 135.004 131.259 134.167 131.259L104.022 131.233C103.342 131.233 102.793 130.486 102.924 129.883C104.258 122.715 103.695 115.481 101.041 108.719L96.5942 97.8285C96.4765 97.5271 96.1495 97.3305 95.7964 97.3305L32.9836 97.4616C32.5259 97.4616 31.9374 98.2872 31.7674 98.6672L27.5171 108.063C26.0262 111.366 24.6792 114.708 23.4761 118.102C22.2337 121.758 21.4621 125.532 22.1944 129.294C22.3121 130.224 22.0244 130.997 21.109 131.246C21.109 131.246 3.71547 131.22 1.00836 131.22C0.158298 131.22 -0.247114 130.145 0.158299 129.477L4.77477 121.863C7.40341 117.525 9.7705 113.056 11.876 108.483L61.0879 1.08771C61.3887 0.432464 62.0949 0 62.8926 0H62.8795ZM64.2527 26.1968C63.965 25.594 63.0234 25.5809 62.7226 26.1837C58.4985 34.8592 39.4964 78.6166 36.8416 85.9947C36.5931 86.6762 36.5539 87.0562 36.5539 87.0562L87.9236 86.899C89.8983 86.899 91.2584 85.0905 90.4999 83.4262C85.1772 71.7628 68.006 34.1384 64.2658 26.1968H64.2527Z" fill="#565522" style="fill:#565522;fill:color(display-p3 0.3373 0.3333 0.1333);fill-opacity:1;"/>
<path d="M163.853 88.0781C167.214 126.607 208.841 130.866 232.407 115.572C236.645 112.597 239.26 109.125 242.124 104.328C242.32 103.988 242.713 103.778 243.131 103.778L256.928 103.725C257.909 103.725 258.341 104.695 257.818 105.455C254.417 110.488 251.745 114.113 249.801 116.332C230.969 135.033 195.253 140.891 171.478 128.35C162.886 123.881 156.229 117.669 151.495 109.714C146.774 101.747 144.407 92.5993 144.407 82.2333C144.407 71.8673 146.8 62.9166 151.599 54.9488C156.399 46.9941 163.095 40.7692 171.687 36.3135C180.279 31.8447 190.153 29.6169 201.334 29.6169C212.516 29.6169 222.887 32.0151 231.623 36.7984C240.359 41.5948 247.015 48.3177 251.592 56.9932C256.026 65.3934 258.184 75.0125 258.053 85.8372C258.053 86.4138 257.517 86.8987 256.876 86.8987H163.749M170.34 77.3845L235.363 77.0044C236.069 77.0044 239.012 77.3845 239.012 73.951C239.012 64.5154 231.989 54.9619 227.464 50.231C222.939 45.5001 213.51 40.2843 201.334 40.2843C189.159 40.2843 181.103 44.9235 176.683 48.9205C169.255 55.6434 165.187 65.2231 163.853 75.7988C163.775 76.4278 163.435 77.3714 164.128 77.3714" fill="#565522" style="fill:#565522;fill:color(display-p3 0.3373 0.3333 0.1333);fill-opacity:1;"/>
<path d="M306.925 122.466C300.987 116.791 298.215 108.47 298.215 97.501L298.333 50.8473C298.333 50.31 298.45 44.2948 294.004 44.1638H275.695C275.106 44.1638 274.636 43.7313 274.636 43.2071V35.2131C274.636 34.6758 275.106 34.2564 275.695 34.2564H288.289C292.291 34.2564 294.919 34.5185 296.436 33.326C297.953 32.1465 298.267 31.4651 298.934 25.3844L300.556 0.943633C300.582 0.43254 301.053 0.0262874 301.615 0.0262874H316.969L317.008 33.3522C317.008 33.9288 317.531 34.4006 318.172 34.4006L345.91 34.2564C346.551 34.2564 347.074 34.7282 347.074 35.3048V43.1154C347.074 43.692 346.551 44.1638 345.91 44.1638L318.08 44.19C317.492 44.19 317.021 44.6225 317.021 45.1467V97.6582C317.139 110.947 318.08 120.277 333.407 120.513H347.453C348.041 120.513 348.512 120.946 348.512 121.47V130.224C348.512 130.761 348.041 131.181 347.453 131.181H332.989C321.533 131.181 312.836 128.14 306.912 122.466H306.925Z" fill="#565522" style="fill:#565522;fill:color(display-p3 0.3373 0.3333 0.1333);fill-opacity:1;"/>
<path d="M373.962 0H389.263C389.864 0 390.335 0.432463 390.335 0.969767L392.598 45.0024C392.598 47.2303 393.578 47.3482 395.187 45.6577C412.881 27.9267 448.427 26.3934 464.787 45.8149C472.333 54.3201 474.739 65.6558 475.367 76.9785V107.932C475.694 115.311 476.439 122.676 477.512 130.119C477.603 130.709 477.093 131.22 476.439 131.22H455.253C454.599 131.22 454.102 130.696 454.181 130.119C455.253 122.951 455.999 115.691 456.326 108.299C455.358 88.655 460.537 65.9048 445.641 50.7162C432.079 37.4147 409.873 42.1062 400.078 58.3695C390.858 73.1388 393.042 91.0139 392.611 107.814C392.977 115.245 393.67 122.636 394.638 130.001C394.729 130.591 394.219 131.233 393.565 131.233H372.68C372.026 131.233 371.529 130.709 371.608 130.132C372.811 122.767 373.595 115.455 373.909 108.077L373.949 0.0262105L373.962 0Z" fill="#565522" style="fill:#565522;fill:color(display-p3 0.3373 0.3333 0.1333);fill-opacity:1;"/>
<path d="M648.923 29.0669L663.491 29.2504C664.093 29.2504 664.603 29.6828 664.629 30.2332L665.087 43.9017C665.126 44.937 666.683 45.1991 667.127 44.2556C674.621 29.6435 692.289 28.7917 706.884 29.0669C707.511 29.0669 708.021 29.5256 708.021 30.0891V38.6597C708.021 39.2233 707.511 39.6819 706.884 39.6819C694.996 39.3281 684.547 39.6426 676.478 48.9078C667.729 56.6791 666.447 68.8142 666.591 80.9363L666.8 105.652C667.127 113.882 667.873 121.994 668.958 130.028C669.05 130.643 668.513 131.181 667.833 131.181H646.765C646.085 131.181 645.549 130.643 645.64 130.028C646.726 121.981 647.458 113.882 647.785 105.678V30.0891C647.785 29.5256 648.295 29.0669 648.923 29.0669Z" fill="#565522" style="fill:#565522;fill:color(display-p3 0.3373 0.3333 0.1333);fill-opacity:1;"/>
<path d="M523.69 88.0781C527.051 126.607 568.677 130.866 592.244 115.572C596.481 112.597 599.096 109.125 601.96 104.328C602.157 103.988 602.549 103.778 602.967 103.778L616.765 103.725C617.745 103.725 618.177 104.695 617.654 105.455C614.254 110.488 611.581 114.113 609.637 116.332C590.805 135.033 555.09 140.891 531.314 128.35C522.722 123.881 516.065 117.669 511.331 109.714C506.61 101.747 504.243 92.5993 504.243 82.2333C504.243 71.8673 506.636 62.9166 511.436 54.9488C516.235 46.9941 522.931 40.7692 531.523 36.3135C540.115 31.8447 549.989 29.6169 561.171 29.6169C572.352 29.6169 582.723 32.0151 591.459 36.7984C600.195 41.5948 606.852 48.3177 611.429 56.9932C615.862 65.3934 618.02 75.0125 617.889 85.8372C617.889 86.4138 617.353 86.8987 616.712 86.8987H523.585M530.176 77.3845L595.199 77.0044C595.905 77.0044 598.848 77.3845 598.848 73.951C598.848 64.5154 591.825 54.9619 587.3 50.231C582.775 45.5001 573.346 40.2843 561.171 40.2843C548.995 40.2843 540.939 44.9235 536.519 48.9205C529.091 55.6434 525.024 65.2231 523.69 75.7988C523.611 76.4278 523.271 77.3714 523.964 77.3714" fill="#565522" style="fill:#565522;fill:color(display-p3 0.3373 0.3333 0.1333);fill-opacity:1;"/>
</svg>
