<svg width="2047" height="387" viewBox="0 0 2047 387" fill="none" xmlns="http://www.w3.org/2000/svg">
<path d="M181.794 0H208.98C211.249 0 213.29 1.23973 214.198 3.11811L356.136 310.195C362.451 323.87 369.635 337.169 377.613 350.13L390.619 371.205C391.791 373.121 390.317 376.277 387.897 376.277L300.745 376.201C298.779 376.201 297.191 374.06 297.569 372.332C301.425 351.783 299.8 331.045 292.124 311.66L279.269 280.442C278.928 279.578 277.983 279.014 276.962 279.014L95.3608 279.39C94.0375 279.39 92.336 281.757 91.8445 282.846L79.5562 309.782C75.2459 319.249 71.3514 328.829 67.8729 338.559C64.281 349.04 62.0502 359.86 64.1675 370.641C64.5078 373.309 63.676 375.525 61.0293 376.239C61.0293 376.239 10.742 376.164 2.91532 376.164C0.457665 376.164 -0.714444 373.083 0.457667 371.167L13.8046 349.341C21.4044 336.906 28.248 324.095 34.3354 310.984L176.615 3.11811C177.484 1.23973 179.526 0 181.832 0H181.794ZM185.765 75.0975C184.933 73.3694 182.21 73.3319 181.341 75.06C169.128 99.9297 114.19 225.368 106.515 246.518C105.796 248.472 105.683 249.561 105.683 249.561L254.201 249.11C259.91 249.11 263.842 243.926 261.649 239.155C246.261 205.72 196.616 97.8635 185.802 75.0975H185.765Z" fill="currentColor"/>
<path d="M473.726 252.491C483.443 362.939 603.792 375.149 671.926 331.307C684.176 322.78 691.738 312.824 700.019 299.074C700.586 298.098 701.72 297.497 702.93 297.497L742.82 297.346C745.655 297.346 746.903 300.126 745.391 302.305C735.56 316.731 727.834 327.125 722.213 333.486C667.767 387.095 564.507 403.888 495.769 367.936C470.928 355.125 451.682 337.318 437.995 314.515C424.346 291.674 417.502 265.451 417.502 235.735C417.502 206.02 424.421 180.361 438.298 157.52C452.174 134.716 471.533 116.872 496.374 104.099C521.215 91.2883 549.762 84.9018 582.089 84.9018C614.417 84.9018 644.4 91.7766 669.657 105.489C694.914 119.239 714.159 138.511 727.393 163.38C740.211 187.461 746.449 215.036 746.071 246.067C746.071 247.72 744.521 249.11 742.668 249.11H473.423M492.479 221.836L680.471 220.746C682.512 220.746 691.02 221.836 691.02 211.993C691.02 184.944 670.716 157.557 657.634 143.996C644.551 130.434 617.29 115.482 582.089 115.482C546.888 115.482 523.597 128.781 510.817 140.239C489.341 159.511 477.582 186.973 473.726 217.29C473.499 219.093 472.516 221.798 474.52 221.798" fill="currentColor"/>
<path d="M887.367 351.069C870.201 334.802 862.186 310.947 862.186 279.503L862.526 145.762C862.526 144.222 862.866 126.979 850.011 126.603H797.077C795.375 126.603 794.014 125.363 794.014 123.86V100.944C794.014 99.404 795.375 98.2018 797.077 98.2018H833.488C845.058 98.2018 852.658 98.9531 857.044 95.5345C861.43 92.1534 862.337 90.1999 864.265 72.7686L868.954 2.70508C869.029 1.23995 870.39 0.0753572 872.016 0.0753572H916.405L916.519 95.6096C916.519 97.2626 918.031 98.615 919.884 98.615L1000.08 98.2018C1001.93 98.2018 1003.44 99.5542 1003.44 101.207V123.597C1003.44 125.25 1001.93 126.603 1000.08 126.603L919.619 126.678C917.918 126.678 916.557 127.918 916.557 129.42V279.954C916.897 318.047 919.619 344.795 963.932 345.471H1004.54C1006.24 345.471 1007.6 346.711 1007.6 348.214V373.309C1007.6 374.849 1006.24 376.051 1004.54 376.051H962.722C929.601 376.051 904.457 367.336 887.329 351.069H887.367Z" fill="currentColor"/>
<path d="M1081.18 0H1125.42C1127.16 0 1128.52 1.23973 1128.52 2.78L1135.06 129.007C1135.06 135.393 1137.9 135.732 1142.55 130.885C1193.7 80.0565 1296.47 75.661 1343.77 131.336C1365.59 155.717 1372.55 188.213 1374.36 220.672V309.406C1375.31 330.557 1377.46 351.67 1380.56 373.008C1380.83 374.699 1379.35 376.164 1377.46 376.164H1316.21C1314.32 376.164 1312.88 374.661 1313.11 373.008C1316.21 352.459 1318.36 331.646 1319.31 310.458C1316.51 254.144 1331.48 188.927 1288.42 145.386C1249.21 107.255 1185.01 120.705 1156.69 167.326C1130.03 209.664 1136.35 260.907 1135.1 309.068C1136.16 330.369 1138.16 351.557 1140.96 372.67C1141.22 374.361 1139.75 376.201 1137.86 376.201H1077.48C1075.59 376.201 1074.15 374.699 1074.38 373.046C1077.85 351.933 1080.12 330.97 1081.03 309.82L1081.14 0.0751368L1081.18 0Z" fill="currentColor"/>
<path d="M1876.14 83.3251L1918.26 83.8511C1920 83.8511 1921.47 85.0908 1921.55 86.6687L1922.87 125.852C1922.98 128.819 1927.48 129.571 1928.77 126.866C1950.43 84.9781 2001.51 82.5362 2043.71 83.3251C2045.53 83.3251 2047 84.64 2047 86.2554V110.825C2047 112.44 2045.53 113.755 2043.71 113.755C2009.34 112.741 1979.13 113.642 1955.8 140.202C1930.51 162.48 1926.8 197.267 1927.22 232.017L1927.82 302.87C1928.77 326.462 1930.92 349.717 1934.06 372.746C1934.33 374.511 1932.78 376.051 1930.81 376.051H1869.9C1867.93 376.051 1866.38 374.511 1866.65 372.746C1869.78 349.679 1871.9 326.462 1872.85 302.945V86.2554C1872.85 84.64 1874.32 83.3251 1876.14 83.3251Z" fill="currentColor"/>
<path d="M1514.07 252.491C1523.79 362.939 1644.13 375.149 1712.27 331.307C1724.52 322.78 1732.08 312.824 1740.36 299.074C1740.93 298.098 1742.06 297.497 1743.27 297.497L1783.16 297.346C1786 297.346 1787.25 300.126 1785.73 302.305C1775.9 316.731 1768.18 327.125 1762.56 333.486C1708.11 387.095 1604.85 403.888 1536.11 367.936C1511.27 355.125 1492.02 337.318 1478.34 314.515C1464.69 291.674 1457.84 265.451 1457.84 235.735C1457.84 206.02 1464.76 180.361 1478.64 157.52C1492.52 134.716 1511.88 116.872 1536.72 104.099C1561.56 91.2883 1590.1 84.9018 1622.43 84.9018C1654.76 84.9018 1684.74 91.7766 1710 105.489C1735.26 119.239 1754.5 138.511 1767.74 163.38C1780.55 187.461 1786.79 215.036 1786.41 246.067C1786.41 247.72 1784.86 249.11 1783.01 249.11H1513.77M1532.82 221.836L1720.81 220.746C1722.86 220.746 1731.36 221.836 1731.36 211.993C1731.36 184.944 1711.06 157.557 1697.98 143.996C1684.89 130.434 1657.63 115.482 1622.43 115.482C1587.23 115.482 1563.94 128.781 1551.16 140.239C1529.68 159.511 1517.92 186.973 1514.07 217.29C1513.84 219.093 1512.86 221.798 1514.86 221.798" fill="currentColor"/>
</svg>
