<svg width="1179" height="148" viewBox="0 0 1179 148" fill="none" xmlns="http://www.w3.org/2000/svg">
<path d="M68.859 0.012958H79.1494C80.0048 0.012958 80.7824 0.479526 81.1194 1.2053L134.839 118.184C137.224 123.394 139.946 128.462 142.965 133.386L147.89 141.409C148.344 142.135 147.787 143.34 146.854 143.34L113.87 143.314C113.131 143.314 112.522 142.498 112.665 141.837C114.129 134.009 113.507 126.103 110.591 118.728L105.731 106.831C105.601 106.507 105.251 106.287 104.862 106.287L36.1215 106.429C35.629 106.429 34.968 107.336 34.7866 107.751L30.1339 118.016C28.5009 121.619 27.0234 125.273 25.7015 128.98C24.3407 132.972 23.4983 137.093 24.3018 141.214C24.4314 142.225 24.1074 143.068 23.1095 143.353C23.1095 143.353 4.07091 143.327 1.10302 143.327C0.182846 143.327 -0.27076 142.148 0.169887 141.422L5.22437 133.114C8.10153 128.371 10.6936 123.498 12.9875 118.508L66.902 1.19234C67.226 0.479528 68.0036 0 68.872 0L68.859 0.012958ZM70.3624 28.6161C70.0513 27.9552 69.0145 27.9422 68.6905 28.6032C64.0637 38.0771 43.2755 85.8484 40.3595 93.9227C40.0873 94.6743 40.0355 95.0761 40.0355 95.0761L96.2439 94.9076C98.4083 94.9076 99.8857 92.9247 99.0563 91.1232C93.2372 78.3834 74.4319 37.2995 70.3365 28.6291L70.3624 28.6161Z" fill="#555328" style="fill:#555328;fill:color(display-p3 0.3333 0.3255 0.1569);fill-opacity:1;"/>
<path d="M179.358 96.1907C183.026 138.26 228.581 142.912 254.372 126.207C258.998 122.954 261.863 119.169 264.999 113.933C265.219 113.57 265.634 113.337 266.101 113.337L281.199 113.272C282.275 113.272 282.741 114.335 282.184 115.164C278.469 120.66 275.544 124.621 273.41 127.049C252.803 147.474 213.728 153.864 187.704 140.178C178.308 135.305 171.011 128.513 165.84 119.817C160.669 111.121 158.077 101.129 158.077 89.8143C158.077 78.5 160.695 68.7151 165.957 60.0188C171.206 51.3225 178.528 44.5443 187.937 39.6583C197.334 34.7852 208.155 32.3358 220.377 32.3358C232.598 32.3358 243.964 34.9537 253.516 40.1767C263.068 45.4126 270.364 52.761 275.38 62.235C280.24 71.4108 282.599 81.9086 282.456 93.7283C282.456 94.3633 281.86 94.8817 281.16 94.8817H179.254M186.46 84.5136L257.625 84.1118C258.402 84.1118 261.616 84.5136 261.616 80.781C261.616 70.4776 253.931 60.0447 248.98 54.8865C244.029 49.7154 233.7 44.0259 220.39 44.0259C207.08 44.0259 198.254 49.0933 193.42 53.4479C185.294 60.7834 180.848 71.2553 179.371 82.8028C179.28 83.4897 178.904 84.5265 179.669 84.5265" fill="#555328" style="fill:#555328;fill:color(display-p3 0.3333 0.3255 0.1569);fill-opacity:1;"/>
<path d="M335.917 133.736C329.424 127.541 326.392 118.456 326.392 106.468L326.508 55.5215C326.508 54.9383 326.638 48.3675 321.778 48.212H301.754C301.106 48.212 300.588 47.7454 300.588 47.1622V38.44C300.588 37.8568 301.106 37.3902 301.754 37.3902H315.544C319.925 37.3902 322.802 37.6753 324.461 36.3793C326.12 35.0833 326.456 34.3575 327.182 27.7089L328.958 1.01089C328.984 0.453606 329.502 0 330.124 0H346.934L346.972 36.3923C346.972 37.0273 347.543 37.5328 348.243 37.5328L378.595 37.3772C379.295 37.3772 379.865 37.8957 379.865 38.5177V47.0585C379.865 47.6936 379.295 48.212 378.595 48.212L348.139 48.2379C347.491 48.2379 346.972 48.7045 346.972 49.2877V106.624C347.102 121.139 348.139 131.326 364.909 131.572H380.28C380.928 131.572 381.447 132.039 381.447 132.622V142.186C381.447 142.77 380.928 143.236 380.28 143.236H364.456C351.923 143.236 342.41 139.918 335.917 133.723V133.736Z" fill="#555328" style="fill:#555328;fill:color(display-p3 0.3333 0.3255 0.1569);fill-opacity:1;"/>
<path d="M409.272 0.0130005H426.003C426.651 0.0130005 427.183 0.47957 427.183 1.07574L429.658 49.1581C429.658 51.5946 430.734 51.7242 432.484 49.8709C451.846 30.5084 490.74 28.8235 508.638 50.0394C516.906 59.3319 519.524 71.7089 520.211 84.06V117.86C520.574 125.921 521.378 133.957 522.557 142.096C522.648 142.731 522.103 143.301 521.391 143.301H498.205C497.492 143.301 496.948 142.731 497.038 142.096C498.218 134.268 499.034 126.349 499.384 118.262C498.321 96.8128 503.998 71.9681 487.694 55.379C472.855 40.8506 448.554 45.9699 437.836 63.7383C427.74 79.8738 430.138 99.3919 429.671 117.731C430.073 125.857 430.825 133.905 431.887 141.953C431.978 142.588 431.421 143.301 430.708 143.301H407.859C407.146 143.301 406.602 142.731 406.693 142.096C408.015 134.06 408.87 126.064 409.22 118.003L409.259 0.0130005H409.272Z" fill="#555328" style="fill:#555328;fill:color(display-p3 0.3333 0.3255 0.1569);fill-opacity:1;"/>
<path d="M710.143 31.7525L726.097 31.9599C726.758 31.9599 727.303 32.4264 727.342 33.0226L727.847 47.9528C727.886 49.0803 729.597 49.3784 730.076 48.3416C738.267 32.3876 757.617 31.4544 773.584 31.7525C774.271 31.7525 774.828 32.2579 774.828 32.88V42.2503C774.828 42.8724 774.271 43.3778 773.584 43.3778C760.585 42.989 749.141 43.3389 740.302 53.4479C730.737 61.9239 729.325 75.1822 729.48 88.4145L729.713 115.398C730.076 124.379 730.88 133.244 732.072 142.018C732.163 142.692 731.593 143.288 730.841 143.288H707.785C707.033 143.288 706.45 142.692 706.553 142.018C707.746 133.231 708.549 124.379 708.899 115.424V32.88C708.899 32.2579 709.457 31.7525 710.143 31.7525Z" fill="#555328" style="fill:#555328;fill:color(display-p3 0.3333 0.3255 0.1569);fill-opacity:1;"/>
<path d="M573.115 96.1907C576.782 138.26 622.338 142.912 648.128 126.207C652.755 122.954 655.619 119.169 658.756 113.933C658.976 113.57 659.391 113.337 659.857 113.337L674.956 113.272C676.032 113.272 676.498 114.335 675.941 115.164C672.226 120.66 669.301 124.621 667.167 127.049C646.56 147.474 607.485 153.864 581.461 140.178C572.065 135.305 564.768 128.513 559.597 119.817C554.426 111.121 551.834 101.129 551.834 89.8143C551.834 78.5 554.452 68.7151 559.714 60.0188C564.963 51.3225 572.285 44.5443 581.694 39.6583C591.09 34.7852 601.912 32.3358 614.134 32.3358C626.355 32.3358 637.721 34.9537 647.273 40.1767C656.825 45.4126 664.121 52.761 669.137 62.235C673.997 71.4108 676.356 81.9086 676.213 93.7283C676.213 94.3633 675.617 94.8817 674.917 94.8817H573.011M580.217 84.5136L651.381 84.1118C652.159 84.1118 655.373 84.5136 655.373 80.781C655.373 70.4776 647.688 60.0447 642.737 54.8865C637.786 49.7154 627.457 44.0259 614.147 44.0259C600.837 44.0259 592.011 49.0933 587.176 53.4479C579.05 60.7834 574.605 71.2553 573.128 82.8028C573.037 83.4897 572.661 84.5265 573.426 84.5265" fill="#555328" style="fill:#555328;fill:color(display-p3 0.3333 0.3255 0.1569);fill-opacity:1;"/>
<path d="M830.984 141.344V30.4047H882.267C894.592 30.4047 904.053 32.9449 910.624 38.0253C917.208 43.1057 920.487 50.4411 920.487 60.0317C920.487 66.2008 919.217 71.0738 916.677 74.6638C914.136 78.2538 910.533 80.9365 905.881 82.7121C901.215 84.4876 895.72 85.6022 889.408 86.0558L890.03 85.0319C894.592 85.1486 898.908 85.5763 903.004 86.315C907.099 87.0537 910.715 88.3368 913.877 90.1642C917.039 91.9916 919.528 94.5318 921.342 97.7848C923.157 101.038 924.064 105.237 924.064 110.369C924.064 117.212 922.509 122.863 919.398 127.321C916.288 131.766 911.985 135.175 906.503 137.508C901.008 139.854 894.696 141.137 887.542 141.357H830.971L830.984 141.344ZM848.7 78.3445H881.179C887.918 78.3445 893.115 77.0614 896.796 74.4953C900.476 71.9292 902.317 67.8467 902.317 62.2479C902.317 56.6491 900.476 52.8647 896.796 50.5189C893.115 48.1861 888.333 47.0067 882.423 47.0067H848.7V78.3445ZM848.7 124.742H884.911C891.65 124.742 896.873 123.459 900.606 120.893C904.338 118.327 906.205 114.296 906.205 108.827C906.205 104.485 905.064 101.323 902.783 99.3271C900.502 97.3312 897.573 96.0481 894.009 95.4779C890.432 94.9076 886.622 94.6225 882.591 94.6225H848.713V124.755L848.7 124.742Z" fill="#555328" style="fill:#555328;fill:color(display-p3 0.3333 0.3255 0.1569);fill-opacity:1;"/>
<path d="M945.669 30.4047H963.386V141.344H945.669V30.4047Z" fill="#555328" style="fill:#555328;fill:color(display-p3 0.3333 0.3255 0.1569);fill-opacity:1;"/>
<path d="M1042.42 143.405C1030.61 143.405 1020.32 141.072 1011.57 136.38C1002.81 131.702 996.033 125.079 991.211 116.525C986.39 107.959 983.979 97.7459 983.979 85.8743C983.979 74.0028 986.39 63.7642 991.211 55.1457C996.033 46.5271 1002.81 39.9045 1011.57 35.2906C1020.32 30.6638 1030.61 28.3569 1042.42 28.3569C1054.22 28.3569 1064.64 30.6638 1073.34 35.2906C1082.05 39.9174 1088.8 46.5401 1093.62 55.1457C1098.44 63.7642 1100.85 74.0028 1100.85 85.8743C1100.85 97.7459 1098.44 107.959 1093.62 116.525C1088.8 125.092 1082.05 131.702 1073.34 136.38C1064.63 141.059 1054.33 143.405 1042.42 143.405ZM1042.42 126.284C1050.28 126.284 1057.23 124.807 1063.24 121.839C1069.26 118.871 1073.99 114.387 1077.46 108.399C1080.93 102.412 1082.67 94.9076 1082.67 85.8873C1082.67 76.867 1080.93 69.5315 1077.46 63.5439C1073.99 57.5563 1069.24 53.0461 1063.24 50.0134C1057.23 46.9937 1050.3 45.4774 1042.42 45.4774C1034.54 45.4774 1027.71 46.9937 1021.59 50.0134C1015.47 53.0332 1010.66 57.5433 1007.14 63.5439C1003.61 69.5315 1001.85 76.9836 1001.85 85.8873C1001.85 94.791 1003.61 102.412 1007.14 108.399C1010.66 114.387 1015.47 118.871 1021.59 121.839C1027.71 124.807 1034.64 126.284 1042.42 126.284Z" fill="#555328" style="fill:#555328;fill:color(display-p3 0.3333 0.3255 0.1569);fill-opacity:1;"/>
<path d="M1140.63 47.0654C1140.82 47.0654 1141.01 47.2066 1141.01 47.4409V76.411C1141.01 77.6096 1141.98 78.5774 1143.18 78.5774H1172.57C1172.96 78.5774 1173.09 79.0941 1172.75 79.2801C1170.16 80.6716 1141.01 83.9747 1141.01 87.8288C1141.01 91.683 1170.17 94.9896 1172.75 96.3776C1173.09 96.5602 1172.96 97.0803 1172.57 97.0803H1143.18C1141.98 97.0803 1141.01 98.0516 1141.01 99.2467V128.561C1141.01 128.795 1140.82 128.937 1140.63 128.937C1140.51 128.937 1140.38 128.875 1140.31 128.74C1138.92 126.154 1135.62 97.0803 1131.77 97.0803C1127.92 97.0803 1124.62 126.154 1123.23 128.74C1123.16 128.878 1123.03 128.937 1122.91 128.937C1122.72 128.937 1122.53 128.795 1122.53 128.561V99.2467C1122.53 98.0481 1121.56 97.0803 1120.37 97.0803H1091.43C1091.04 97.0803 1090.91 96.5636 1091.26 96.3776C1093.84 94.9861 1122.53 91.683 1122.53 87.8288C1122.53 83.9747 1093.84 80.6681 1091.26 79.2801C1090.92 79.0975 1091.05 78.5774 1091.43 78.5774H1120.37C1121.56 78.5774 1122.53 77.6061 1122.53 76.411V47.4409C1122.53 47.2066 1122.72 47.0654 1122.91 47.0654C1123.03 47.0654 1123.16 47.1274 1123.23 47.2618C1124.62 49.8484 1127.92 78.574 1131.77 78.574C1135.62 78.574 1138.92 49.8484 1140.31 47.2618C1140.38 47.124 1140.51 47.0654 1140.63 47.0654M1140.63 41C1138.27 41 1136.1 42.2985 1134.97 44.3892C1134.1 46.0115 1133.66 48.2916 1132.41 55.2526C1132.24 56.2101 1132.02 57.4121 1131.77 58.7485C1131.52 57.4121 1131.3 56.2101 1131.13 55.2526C1129.88 48.2882 1129.44 46.008 1128.57 44.3892C1127.44 42.2985 1125.27 41 1122.91 41C1121.3 41 1119.76 41.5959 1118.57 42.6808C1117.24 43.8967 1116.47 45.6292 1116.47 47.4374V70.3386C1116.47 71.5373 1115.5 72.5051 1114.31 72.5051H1091.56C1088.87 72.5051 1086.39 74.1102 1085.43 76.6211C1084.25 79.7037 1085.56 83.0929 1088.39 84.6153C1090.01 85.4867 1092.28 85.9241 1099.23 87.1813C1100.19 87.3535 1101.39 87.5705 1102.73 87.822C1101.39 88.0699 1100.19 88.2869 1099.23 88.4626C1093.56 89.489 1091 89.9712 1089.37 90.5877C1086.46 91.6899 1084.47 95.0688 1085.16 98.1067C1085.82 101.062 1088.42 103.142 1091.43 103.142H1114.3C1115.5 103.142 1116.47 104.114 1116.47 105.309V128.423C1116.47 131.441 1118.49 134.155 1121.43 134.83C1124.34 135.498 1127.21 134.127 1128.56 131.606C1129.44 129.984 1129.87 127.673 1131.13 120.622C1131.3 119.665 1131.52 118.459 1131.77 117.123C1132.01 118.459 1132.23 119.665 1132.4 120.622C1133.66 127.673 1134.1 129.984 1134.97 131.609C1136.33 134.134 1139.2 135.502 1142.11 134.83C1145.05 134.155 1147.07 131.441 1147.07 128.423V105.309C1147.07 104.11 1148.04 103.142 1149.23 103.142H1172.44C1175.13 103.142 1177.6 101.537 1178.56 99.0263C1179.74 95.9436 1178.44 92.5544 1175.61 91.0321C1173.98 90.1572 1171.67 89.7163 1164.6 88.4557C1163.64 88.2835 1162.43 88.07 1161.1 87.8254C1162.43 87.5809 1163.64 87.3673 1164.6 87.1951C1172.31 85.8174 1174.37 85.4213 1176.04 84.3673C1177.7 83.3202 1178.82 81.5568 1178.98 79.5935C1179.3 75.5981 1176.23 72.5086 1172.56 72.5086H1149.23C1148.03 72.5086 1147.06 71.5373 1147.06 70.3421V47.4409C1147.06 43.8898 1144.18 41 1140.63 41H1140.63Z" fill="url(#paint0_linear_123_22)"/>
<defs>
<linearGradient id="paint0_linear_123_22" x1="1092.03" y1="65.031" x2="1171.75" y2="110.999" gradientUnits="userSpaceOnUse">
<stop stop-color="#748D93" style="stop-color:#748D93;stop-color:color(display-p3 0.4549 0.5529 0.5765);stop-opacity:1;"/>
<stop offset="1" stop-color="#E0E698" style="stop-color:#E0E698;stop-color:color(display-p3 0.8784 0.9020 0.5961);stop-opacity:1;"/>
</linearGradient>
</defs>
</svg>
