<svg width="20" height="20" viewBox="0 0 20 20" fill="none" xmlns="http://www.w3.org/2000/svg">
<path d="M11.8368 1.29052C11.8771 1.29052 11.9173 1.32056 11.9173 1.3704V7.53425C11.9173 7.78927 12.1237 7.9952 12.3777 7.9952H18.6316C18.7143 7.9952 18.7421 8.10512 18.6697 8.1447C18.12 8.44076 11.918 9.14354 11.918 9.96358C11.918 10.7836 18.1208 11.4871 18.6697 11.7825C18.7421 11.8213 18.7143 11.932 18.6316 11.932H12.3777C12.123 11.932 11.9173 12.1386 11.9173 12.3929V18.6301C11.9173 18.6799 11.8771 18.7099 11.8368 18.7099C11.8105 18.7099 11.7834 18.6967 11.768 18.6682C11.4723 18.1178 10.7705 11.932 9.95148 11.932C9.1325 11.932 8.42989 18.1178 8.13494 18.6682C8.11957 18.6975 8.09249 18.7099 8.06615 18.7099C8.02589 18.7099 7.98564 18.6799 7.98564 18.6301V12.3929C7.98564 12.1379 7.77925 11.932 7.52528 11.932H1.36868C1.28598 11.932 1.25817 11.822 1.33135 11.7825C1.881 11.4864 7.98491 10.7836 7.98491 9.96358C7.98491 9.14354 1.881 8.44003 1.33135 8.1447C1.2589 8.10585 1.28671 7.9952 1.36868 7.9952H7.52455C7.77925 7.9952 7.98491 7.78854 7.98491 7.53425V1.3704C7.98491 1.32056 8.02516 1.29052 8.06541 1.29052C8.09176 1.29052 8.11884 1.30371 8.13421 1.33229C8.42989 1.88265 9.13177 7.99446 9.95075 7.99446C10.7697 7.99446 11.4723 1.88265 11.7673 1.33229C11.7826 1.30298 11.8097 1.29052 11.8361 1.29052M11.8368 0C11.3333 0 10.8715 0.276278 10.6329 0.721107C10.4477 1.06627 10.354 1.55141 10.0869 3.03246C10.0503 3.23619 10.0042 3.49194 9.95075 3.77628C9.89805 3.49194 9.85194 3.23619 9.81535 3.03246C9.54821 1.55067 9.45453 1.06554 9.26936 0.721107C9.03077 0.276278 8.56895 0 8.06541 0C7.72289 0 7.39501 0.12678 7.14178 0.357622C6.85854 0.616312 6.69606 0.984926 6.69606 1.36966V6.24226C6.69606 6.49729 6.48967 6.70321 6.23571 6.70321H1.39503C0.823427 6.70321 0.296471 7.04471 0.0922752 7.57895C-0.158761 8.23483 0.119355 8.95594 0.720963 9.27985C1.06495 9.46526 1.54946 9.55833 3.02859 9.82581C3.23206 9.86245 3.48748 9.90862 3.77145 9.96212C3.48748 10.0149 3.23206 10.0611 3.02859 10.0984C1.82025 10.3168 1.27573 10.4194 0.928818 10.5506C0.310377 10.7851 -0.11192 11.504 0.0329926 12.1504C0.173514 12.7791 0.728282 13.2218 1.36868 13.2218H6.23497C6.48967 13.2218 6.69533 13.4284 6.69533 13.6827V18.6007C6.69533 19.2427 7.12568 19.8202 7.7507 19.9638C8.36988 20.106 8.981 19.8143 9.26863 19.2779C9.45453 18.9327 9.54748 18.441 9.81535 16.9409C9.85194 16.7372 9.89732 16.4807 9.95001 16.1963C10.002 16.4807 10.0481 16.7372 10.0847 16.9409C10.3526 18.441 10.4462 18.9327 10.6321 19.2786C10.9205 19.8158 11.5323 20.1067 12.1515 19.9638C12.7765 19.8202 13.2062 19.2427 13.2062 18.6007V13.6827C13.2062 13.4277 13.4126 13.2218 13.6665 13.2218H18.6045C19.1761 13.2218 19.7031 12.8803 19.9073 12.346C20.1583 11.6901 19.8809 10.969 19.2786 10.6451C18.9324 10.459 18.4399 10.3652 16.9351 10.097C16.7309 10.0603 16.4755 10.0149 16.1915 9.96285C16.4755 9.91082 16.7316 9.86538 16.9351 9.82874C18.5775 9.53561 19.0144 9.45133 19.3701 9.22709C19.7243 9.00431 19.9614 8.6291 19.9951 8.21138C20.0632 7.3613 19.4103 6.70395 18.6302 6.70395H13.6651C13.4104 6.70395 13.2047 6.49729 13.2047 6.243V1.3704C13.2047 0.614846 12.5906 0 11.8361 0H11.8368Z" fill="#555328" style="fill:#555328;fill:color(display-p3 0.3333 0.3255 0.1569);fill-opacity:1;"/>
</svg>
