<svg width="50" height="50" viewBox="0 0 50 50" fill="none" xmlns="http://www.w3.org/2000/svg">
<path d="M29.592 3.22629C29.6927 3.22629 29.7933 3.30141 29.7933 3.42599V18.8356C29.7933 19.4732 30.3093 19.988 30.9442 19.988H46.579C46.7858 19.988 46.8553 20.2628 46.6742 20.3617C45.3001 21.1019 29.7951 22.8589 29.7951 24.909C29.7951 26.9591 45.3019 28.7179 46.6742 29.4562C46.8553 29.5533 46.7858 29.8299 46.579 29.8299H30.9442C30.3074 29.8299 29.7933 30.3466 29.7933 30.9823V46.5751C29.7933 46.6997 29.6927 46.7748 29.592 46.7748C29.5262 46.7748 29.4585 46.7419 29.42 46.6704C28.6808 45.2945 26.9261 29.8299 24.8787 29.8299C22.8313 29.8299 21.0747 45.2945 20.3374 46.6704C20.2989 46.7437 20.2312 46.7748 20.1654 46.7748C20.0647 46.7748 19.9641 46.6997 19.9641 46.5751V30.9823C19.9641 30.3447 19.4481 29.8299 18.8132 29.8299H3.4217C3.21494 29.8299 3.14541 29.5551 3.32838 29.4562C4.7025 28.716 19.9623 26.9591 19.9623 24.909C19.9623 22.8589 4.7025 21.1001 3.32838 20.3617C3.14724 20.2646 3.21677 19.988 3.4217 19.988H18.8114C19.4481 19.988 19.9623 19.4713 19.9623 18.8356V3.42599C19.9623 3.30141 20.0629 3.22629 20.1635 3.22629C20.2294 3.22629 20.2971 3.25927 20.3355 3.33072C21.0747 4.70661 22.8294 19.9862 24.8769 19.9862C26.9243 19.9862 28.6808 4.70661 29.4182 3.33072C29.4566 3.25744 29.5243 3.22629 29.5902 3.22629M29.592 0C28.3332 0 27.1786 0.690694 26.5822 1.80277C26.1192 2.66568 25.885 3.87851 25.2172 7.58115C25.1257 8.09047 25.0104 8.72986 24.8769 9.44071C24.7451 8.72986 24.6299 8.09047 24.5384 7.58115C23.8705 3.87668 23.6363 2.66384 23.1734 1.80277C22.5769 0.690694 21.4224 0 20.1635 0C19.3072 0 18.4875 0.31695 17.8544 0.894055C17.1463 1.54078 16.7401 2.46232 16.7401 3.42416V15.6057C16.7401 16.2432 16.2242 16.758 15.5893 16.758H3.48757C2.05857 16.758 0.741177 17.6118 0.230688 18.9474C-0.396902 20.5871 0.298387 22.3898 1.80241 23.1996C2.66237 23.6631 3.87364 23.8958 7.57148 24.5645C8.08014 24.6561 8.71871 24.7716 9.42863 24.9053C8.71871 25.0372 8.08014 25.1526 7.57148 25.2461C4.55063 25.792 3.18933 26.0485 2.32205 26.3765C0.775941 26.9627 -0.279801 28.76 0.0824816 30.3759C0.433786 31.9478 1.82071 33.0544 3.4217 33.0544H15.5874C16.2242 33.0544 16.7383 33.571 16.7383 34.2068V46.5019C16.7383 48.1068 17.8142 49.5504 19.3768 49.9095C20.9247 50.2649 22.4525 49.5358 23.1716 48.1947C23.6363 47.3318 23.8687 46.1025 24.5384 42.3522C24.6299 41.8429 24.7433 41.2016 24.875 40.4908C25.0049 41.2016 25.1202 41.8429 25.2117 42.3522C25.8814 46.1025 26.1156 47.3318 26.5803 48.1965C27.3012 49.5394 28.8309 50.2668 30.3788 49.9095C31.9414 49.5504 33.0154 48.1068 33.0154 46.5019V34.2068C33.0154 33.5692 33.5314 33.0544 34.1663 33.0544H46.5113C47.9403 33.0544 49.2577 32.2006 49.7682 30.8651C50.3958 29.2253 49.7024 27.4226 48.1965 26.6128C47.3311 26.1474 46.0997 25.9129 42.3378 25.2424C41.8273 25.1508 41.1887 25.0372 40.4788 24.9071C41.1887 24.7771 41.8291 24.6635 42.3378 24.5719C46.4436 23.839 47.536 23.6283 48.4252 23.0677C49.3108 22.5108 49.9036 21.5727 49.9878 20.5285C50.158 18.4032 48.5259 16.7599 46.5754 16.7599H34.1626C33.5259 16.7599 33.0117 16.2432 33.0117 15.6075V3.42599C33.0117 1.53711 31.4766 0 29.5902 0H29.592Z" fill="url(#paint0_linear_52_44)"/>
<defs>
<linearGradient id="paint0_linear_52_44" x1="3.74007" y1="12.7824" x2="46.1454" y2="37.2334" gradientUnits="userSpaceOnUse">
<stop stop-color="#748D93" style="stop-color:#748D93;stop-color:color(display-p3 0.4549 0.5529 0.5765);stop-opacity:1;"/>
<stop offset="1" stop-color="#E0E698" style="stop-color:#E0E698;stop-color:color(display-p3 0.8784 0.9020 0.5961);stop-opacity:1;"/>
</linearGradient>
</defs>
</svg>
